Patient4_TMGait_0pt4_01_right_15_EMG.mot
version=1
nRows=33
nColumns=33
inDegrees=no
endheader
time	1LAddLong	2LGlutMax	3LGlutMed	4LIliopsoas	5LSemiMemb	6LBicFemLong	7LRecFem	8LVastMed	9LVastLat	10LGasMed	11LTibAnt	12lTibPost	13LPeroneusLong	14LSol	15LExtDigLong	16LFlexDigLong	17RAddLong	18RGlutMax	19RGlutMed	20RIliopsoas	21RSemiMemb	22RBicFemLong	23RRecFem	24RVastMed	25RVastLat	26RGasMed	27RTibAnt	28RTibPost	29RPeroneusLong	30RSol	31RExtDigLong	32RFlexDigLong
20.24	0.00946	0.112	-0.026093	-0.014648	0.13992	-0.1004	-0.03479	-0.021973	0.19653	0.014801	-0.0177	0.001984	0.062103	0.046539	-0.002594	0.001831	-0.006409	-0.020447	0.32028	-0.003052	-0.30487	-0.009918	-0.16892	-0.049591	-0.006409	-0.009766	0.061798	0.015411	-0.08316	-0.012512	0	-0.012054
20.241	0.008545	0.09491	-0.053101	0.012665	0.080719	-0.042877	-0.011444	-0.030212	0.23575	0.020599	-0.014954	0.006409	0.70572	0.016022	-0.016479	-0.007477	0.027161	-0.007172	0.4071	-0.062408	-0.085297	-0.13199	-0.17136	-0.003204	-0.004883	-0.017242	0.058899	0.019073	-0.15076	-0.082855	-0.003662	-0.0177
20.242	0.005188	0.059509	-0.008392	0.019836	0.06546	-0.074921	-0.013123	-0.020447	0.15167	-0.024109	-0.022278	-0.001526	0.39063	0.079956	0.022125	0.003815	0.044861	-0.002594	-0.14114	-0.037384	0.14969	-0.15335	-0.17532	-0.006866	-0.013733	-0.010223	0.081787	0.010223	-0.14877	-0.19684	0.002136	-0.012512
20.243	-0.005341	-0.033722	0.040588	0.014496	0.05722	-0.10803	0.012054	-0.018158	0.074463	-0.056152	0.005341	-0.002136	-0.11719	0.11032	0.022278	0.001984	0.029144	-0.013885	-0.013733	0.000763	-0.13809	-0.14908	-0.19058	0.00351	0.009155	-0.005646	0.33707	0.007629	-0.12253	-0.23605	-0.011139	-0.001373
20.244	-0.009613	-0.059357	0.092163	0.004425	-0.005493	-0.021515	0.008392	-0.008392	0.079193	-0.027618	0.014191	-0.001068	-0.24719	0.13336	0.034485	-0.012054	-0.007019	-0.067291	-0.25009	0.062256	-0.32349	-0.11581	-0.23666	0.075378	0.017395	0.004883	0.7225	0.006714	-0.08728	-0.032349	-0.004578	-0.009766
20.245	-0.00412	-0.06012	0.058594	0.013733	-0.1059	0.008698	-0.032654	-0.007019	0.13351	-0.018005	0.010071	-0.001678	-0.53619	0.14008	0.020752	-0.000458	-0.029449	-0.041656	-0.78476	0.19363	-0.31326	-0.091248	-0.20584	0.006409	-0.00412	0.0177	0.93613	0.001678	-0.064392	-0.025177	-0.002441	-0.014343
20.246	-0.00351	-0.041199	0.061798	0.011749	-0.10147	-0.04425	-0.083923	0.008392	0.13962	0.033722	0.020905	-0.005493	-0.19684	0.05249	-0.050354	0.003967	-0.000458	-0.037384	-0.36255	0.10284	-0.14526	-0.048828	-0.18021	-0.035095	-0.012665	0.009766	0.6749	0.00473	-0.082245	-0.051117	-0.005341	-0.007019
20.247	-0.010071	-0.024719	0.06958	0.004883	-0.027924	-0.063629	-0.059814	0.00824	0.070648	0.017395	0.007019	-0.00351	-0.050507	0.036316	-0.078735	-0.00061	0.007324	-0.050964	0.30563	-0.023804	-0.13977	0.082703	-0.15182	-0.061646	-0.021515	0.010986	-0.19959	0.005646	0.004883	0.013885	-0.003967	-0.011139
20.248	-0.005341	0.016937	0.049438	-0.010223	0.030823	-0.090485	-0.036469	0.007172	-0.070496	0.008392	0	-0.002899	-0.065155	0.074615	-0.050964	0.004883	-0.026855	-0.039825	0.58914	-0.027313	0.055847	0.11429	-0.20767	0.05127	0.006409	0.008392	-0.83893	-0.000763	0.003967	-0.041504	-0.000153	-0.013123
20.249	0.024261	0.014343	0.02594	0.003052	0.082245	-0.097656	-0.060577	0.004425	-0.15259	0.029755	-0.004883	0.002289	-0.072937	0.063782	-0.039978	0	-0.007782	-0.048676	0.44449	-0.008392	0.26611	0.026093	-0.26123	0.04776	0.006866	0.001526	-0.49332	0.000305	-0.039673	-0.12695	-0.000458	-0.01297
20.25	0.033264	0.019531	0.012207	-0.000458	0.11047	-0.09964	-0.06424	0.010376	-0.18158	0.015717	-0.000763	-0.00412	0.17349	0.050964	0.024567	0.000763	-0.005951	-0.043182	0.14069	0.019684	0.17425	0.02533	-0.22034	0.044403	-0.012665	-0.002594	-0.41519	0.005341	-0.088806	-0.1387	-0.000916	-0.013428
20.251	0.015564	0.034485	0.004272	-0.003204	0.060883	-0.089264	-0.086212	0.030518	-0.14664	0.02594	-0.001831	0.00885	0.13718	-0.008545	0.067291	0.006256	-0.014343	-0.090332	-0.11581	0.009918	0.074005	0.075226	-0.21622	0.014343	-0.011444	-0.006256	-0.35904	0.018311	-0.086975	-0.19012	-0.005493	-0.02655
20.252	0.008087	0.089111	-0.00351	0.002899	0.032196	0.066376	-0.080566	0.032806	-0.078278	0.009613	0.00473	0.005493	0.45807	-0.16419	0.066528	0.012512	0.001831	-0.097504	0.002136	-0.020752	-0.023193	0.092468	-0.24292	0.016785	-0.027466	0.00351	-0.2652	0.022278	-0.02594	-0.37689	-0.003052	-0.029297
20.253	-0.00061	0.044098	-0.012207	0.00473	0.011444	0.14938	-0.13031	0.039673	0.034637	-0.021973	-0.007172	0.007629	0.39963	-0.31952	0.076447	0.009766	0.00473	-0.058441	0.048523	-0.14206	-0.13947	0.041046	-0.22324	0.037842	-0.015259	0.00885	-0.18936	-0.007477	-0.013885	-0.50095	-0.002899	-0.025024
20.254	0.007019	0.07843	0.008545	0.001373	-0.061646	0.10834	-0.082855	0.041351	0.22034	-0.071106	-0.019531	0.000305	0.17532	-0.16937	0.098419	0.014801	-0.017853	-0.006409	0.23148	-0.20187	-0.093536	-0.096741	-0.24612	0.011597	-0.019226	0.006104	-0.12451	-0.1033	-0.02121	-0.19089	-0.002747	-0.02655
20.255	0.007629	0.029144	-0.006866	-0.01297	0.001221	0.043793	-0.009918	0.036469	0.40543	-0.049744	0.002441	0.005951	-0.19379	-0.10239	0.019836	0.017548	-0.006561	-0.01358	0.22461	-0.16525	0.07782	-0.11475	-0.29053	0.058289	-0.011902	0.002136	-0.068665	0.025787	-0.11383	0.29541	-0.000916	-0.029449
20.256	-0.007782	-0.004425	-0.018921	-0.016632	-0.005798	0.052795	-0.034943	0.030365	0.44235	-0.006866	0.012512	0.020599	-0.47195	-0.15396	-0.08728	0.014648	0.025787	-0.006561	-0.070343	-0.041656	0.054474	-0.032806	-0.28458	0.005341	-0.015869	0.000763	-0.058899	0.022278	-0.15427	0.32303	-0.006256	-0.017853
20.257	0.004425	-0.070648	-0.00412	-0.018158	0.012512	0.027313	-0.046082	-0.009003	0.14862	0.026245	0.032349	0.013885	-0.3923	-0.17746	-0.1236	0.009155	0.044708	0.024109	-0.026245	0.024872	0.045471	-0.031891	-0.298	-0.059662	-0.03952	0.003357	-0.052643	-0.009918	-0.1152	0.29007	-0.003052	-0.012512
20.258	0.028839	-0.1181	-0.007935	0.025635	0.062408	-0.021362	-0.088501	-0.017548	-0.1207	0.003052	0.004272	0.011292	-0.046082	0.021515	-0.076447	0.04715	0.023041	0.043945	0.093231	0.068665	0.063019	0.025024	-0.28519	-0.076447	-0.011597	-0.005035	-0.024261	-0.01236	-0.075073	0.19913	-0.00061	-0.003357
20.259	0.04776	-0.11276	-0.004883	0.029602	0.030823	-0.044708	-0.094452	-0.021057	-0.28412	-0.039978	-0.02655	0.015564	0.14542	0.35248	0.018311	0.019989	0.014954	0.031128	0.02594	0.15243	0.10605	0.048676	-0.28732	0.002441	-0.007019	0.007477	-0.016632	0.058594	-0.10849	-0.18951	-0.001221	-0.007935
20.26	0.045013	-0.11704	-0.015869	0.016022	0.027008	0.079193	-0.065918	-0.030823	-0.31464	-0.032806	-0.010223	-0.000763	0.04837	0.31082	0.001373	0.040436	0.025177	0.061493	0.058136	0.11231	-0.11093	0.055847	-0.33234	-0.044403	-0.004883	0.013733	-0.006714	0.015564	-0.14206	-0.33905	-0.000458	-0.009766
20.261	0.018158	-0.093079	-0.031281	0.004578	0.011597	0.14816	-0.045929	-0.030823	-0.34454	0.00351	-0.002136	0.007629	0.04715	0.13947	-0.063782	0.042572	0.011292	0.058594	-0.053558	0.045471	-0.33615	0.08316	-0.289	-0.052032	0.003357	0.021973	0.029449	-0.014801	-0.094299	-0.40329	-0.009918	-0.00061
20.262	-0.009155	-0.046082	-0.077667	-0.00351	-0.048218	0.14008	-0.041962	-0.019836	-0.38727	0.022888	0.00412	0.023499	0.098267	0.091553	-0.013885	0.041199	-0.023499	0.11078	0.083313	0.023041	-0.24277	0.09201	-0.33386	0.084991	0.008392	0.018463	0.042572	-0.019684	0.021362	-0.38055	0.000763	-0.013885
20.263	-0.022125	-0.03952	-0.098572	0.008087	-0.072632	0.12314	0.033875	0.051727	-0.40878	0.01236	0.003052	0.002594	0.11063	-0.13825	0.033722	0.03891	-0.020447	0.096436	0.40329	0.015717	-0.11337	-0.018616	-0.38742	0.14633	0.017548	0.006561	0.045013	0.002899	-0.015411	0.21149	-0.004883	-0.005493
20.264	-0.035553	-0.078278	-0.058289	0.002594	-0.12497	0.079346	0.075073	0.023956	-0.26535	0.004883	0.010986	0.012207	0.072784	-0.24109	0.035095	0.028381	0.013428	0.11856	0.072632	-0.00946	0.037231	-0.23514	-0.32822	0.08194	0.00351	-0.01358	0.048676	0.019836	0.075531	0.32593	-0.007629	-0.009308
20.265	-0.027008	-0.050507	0.06897	0.008087	-0.14069	0.031738	0.063477	0.027618	-0.19287	-0.009308	-0.015259	0.011597	0.15381	-0.085449	0.023956	-0.017853	0.001068	0.090332	-0.010376	-0.008545	0.062103	-0.28259	-0.36667	0.086212	-0.003052	-0.0354	0.037994	0.046844	0.005646	-0.066986	-0.003357	-0.009003
20.266	0.00061	-0.046387	0.011292	0.010529	-0.14343	-0.044098	0.013733	0.03006	-0.16052	-0.03006	-0.007629	0.004425	0.24658	0.040283	0.032043	-0.007629	-0.044403	0.045166	-0.061951	0.000305	-0.15808	-0.16541	-0.3978	0.083466	0.01236	-0.043335	0.03418	0.013733	-0.52414	-0.16937	-0.002136	-0.013123
20.267	0.015564	-0.008087	-0.036469	-0.001678	-0.054779	-0.10712	0.033112	0.019684	-0.17532	-0.019226	0.000916	-0.000763	0.36346	0.066223	0.007935	0.002441	-0.020599	0.059357	-0.048676	0.033875	-0.12314	-0.094299	-0.37003	0.050354	-0.002136	-0.030823	-0.000458	-0.010834	-0.32913	0.18875	-0.000305	-0.014954
20.268	0.021057	0.041351	-0.001831	0.009613	0.1973	-0.10346	0.047607	0.00473	-0.10605	-0.023346	0.002747	0.013733	-0.020294	0.22385	0.088196	0.014038	0.016785	0.065765	-0.066528	0.11856	0.013733	-0.13336	-0.37582	0.04425	0.018463	-0.029144	-0.026398	-0.018005	-0.092926	0.22659	-0.001526	-0.018005
20.269	0.015411	0.026398	0.011139	0.024109	0.22415	-0.011444	0.016174	-0.005493	0.10239	-0.038147	0.00351	-0.004425	-0.075531	0.22553	0.070343	0.006561	0.021667	0.0914	-0.12863	0.030518	-0.028229	-0.085449	-0.32883	-0.00351	0.003967	0.003967	-0.056305	-0.015869	0.063477	0.33157	-0.00473	-0.014191
20.27	0.004883	0.048828	-0.022278	0.009003	0.13382	0.07431	-0.071716	0.008087	0.17288	-0.07309	-0.00946	-0.00412	0.11383	0.14587	0.005493	0.004425	0.009613	0.056458	-0.2095	0.03479	0.019379	0.010681	-0.31937	0.005646	-0.003357	0.032349	-0.023499	0.018921	0.1973	0.36377	-0.007782	-0.015564
20.271	-0.007782	0.069122	-0.039063	0.011597	0.036316	0.18051	-0.1619	0.015411	0.20966	-0.041504	0.013733	-0.010834	-0.45319	0.11505	-0.038605	-0.006104	-0.000916	0.045929	-0.22842	0.035858	0.000916	0.047913	-0.32181	-0.027008	-0.011444	0.016327	0.05127	0.016937	0.073395	0.13519	-0.004272	-0.015106
20.272	-0.003815	0.078278	-0.045624	0.014343	-0.041046	0.22064	-0.21973	0.004578	0.26627	-0.019836	0.025482	-0.020905	-0.18051	0.085602	-0.070801	-0.009155	-0.014038	0.038452	-0.1944	-0.011902	-0.018463	0.1088	-0.30899	0.036469	-0.014038	-0.000763	0.080872	0.010071	-0.016937	0.016022	-0.00061	-0.025787
